<svg viewBox="0 0 654 400" xmlns="http://www.w3.org/2000/svg"><g><g><g><g><g><line x1="68.3125" y1="377.828125" x2="63.3125" y2="377.828125" style="visibility: inherit;" fill="rgb(0, 0, 0)" stroke="rgb(204, 204, 204)" stroke-width="1px"></line><line x1="68.3125" y1="330.599609375" x2="63.3125" y2="330.599609375" style="visibility: inherit;" fill="rgb(0, 0, 0)" stroke="rgb(204, 204, 204)" stroke-width="1px"></line><line x1="68.3125" y1="283.37109375" x2="63.3125" y2="283.37109375" style="visibility: inherit;" fill="rgb(0, 0, 0)" stroke="rgb(204, 204, 204)" stroke-width="1px"></line><line x1="68.3125" y1="236.142578125" x2="63.3125" y2="236.142578125" style="visibility: inherit;" fill="rgb(0, 0, 0)" stroke="rgb(204, 204, 204)" stroke-width="1px"></line><line x1="68.3125" y1="188.9140625" x2="63.3125" y2="188.9140625" style="visibility: inherit;" fill="rgb(0, 0, 0)" stroke="rgb(204, 204, 204)" stroke-width="1px"></line><line x1="68.3125" y1="141.685546875" x2="63.3125" y2="141.685546875" style="visibility: inherit;" fill="rgb(0, 0, 0)" stroke="rgb(204, 204, 204)" stroke-width="1px"></line><line x1="68.3125" y1="94.45703125" x2="63.3125" y2="94.45703125" style="visibility: inherit;" fill="rgb(0, 0, 0)" stroke="rgb(204, 204, 204)" stroke-width="1px"></line><line x1="68.3125" y1="47.228515625" x2="63.3125" y2="47.228515625" style="visibility: inherit;" fill="rgb(0, 0, 0)" stroke="rgb(204, 204, 204)" stroke-width="1px"></line><line x1="68.3125" y1="0" x2="63.3125" y2="0" style="visibility: inherit;" fill="rgb(0, 0, 0)" stroke="rgb(204, 204, 204)" stroke-width="1px"></line></g><g transform="translate(58.3125, 0)"><text x="0" y="377.828125" dx="0em" dy="0.3em" style="text-anchor: end; visibility: hidden; font-family: &quot;Helvetica Neue&quot;, sans-serif; font-size: 12px; font-weight: 200;" fill="rgb(50, 49, 63)" stroke="none" stroke-width="1px">-2e+3</text><text x="0" y="330.599609375" dx="0em" dy="0.3em" style="text-anchor: end; visibility: inherit; font-family: &quot;Helvetica Neue&quot;, sans-serif; font-size: 12px; font-weight: 200;" fill="rgb(50, 49, 63)" stroke="none" stroke-width="1px">0</text><text x="0" y="283.37109375" dx="0em" dy="0.3em" style="text-anchor: end; visibility: inherit; font-family: &quot;Helvetica Neue&quot;, sans-serif; font-size: 12px; font-weight: 200;" fill="rgb(50, 49, 63)" stroke="none" stroke-width="1px">2e+3</text><text x="0" y="236.142578125" dx="0em" dy="0.3em" style="text-anchor: end; visibility: inherit; font-family: &quot;Helvetica Neue&quot;, sans-serif; font-size: 12px; font-weight: 200;" fill="rgb(50, 49, 63)" stroke="none" stroke-width="1px">4e+3</text><text x="0" y="188.9140625" dx="0em" dy="0.3em" style="text-anchor: end; visibility: inherit; font-family: &quot;Helvetica Neue&quot;, sans-serif; font-size: 12px; font-weight: 200;" fill="rgb(50, 49, 63)" stroke="none" stroke-width="1px">6e+3</text><text x="0" y="141.685546875" dx="0em" dy="0.3em" style="text-anchor: end; visibility: inherit; font-family: &quot;Helvetica Neue&quot;, sans-serif; font-size: 12px; font-weight: 200;" fill="rgb(50, 49, 63)" stroke="none" stroke-width="1px">8e+3</text><text x="0" y="94.45703125" dx="0em" dy="0.3em" style="text-anchor: end; visibility: inherit; font-family: &quot;Helvetica Neue&quot;, sans-serif; font-size: 12px; font-weight: 200;" fill="rgb(50, 49, 63)" stroke="none" stroke-width="1px">1e+4</text><text x="0" y="47.228515625" dx="0em" dy="0.3em" style="text-anchor: end; visibility: inherit; font-family: &quot;Helvetica Neue&quot;, sans-serif; font-size: 12px; font-weight: 200;" fill="rgb(50, 49, 63)" stroke="none" stroke-width="1px">1.2e+4</text><text x="0" y="0" dx="0em" dy="0.3em" style="text-anchor: end; visibility: hidden; font-family: &quot;Helvetica Neue&quot;, sans-serif; font-size: 12px; font-weight: 200;" fill="rgb(50, 49, 63)" stroke="none" stroke-width="1px">1.4e+4</text></g><line x1="68.3125" y1="0" x2="68.3125" y2="377.828125" fill="rgb(0, 0, 0)" stroke="rgb(204, 204, 204)" stroke-width="1px"></line></g></g><g transform="translate(68, 0)" clip-path="url(#clip_0)"><clipPath id="clip_0"><rect width="585" height="377"></rect></clipPath><g><g><g><line x1="0" y1="0" x2="0" y2="377.828125" fill="rgb(0, 0, 0)" stroke="rgb(60, 60, 60)" stroke-width="1px" opacity="0.25"></line><line x1="48.807291666666664" y1="0" x2="48.807291666666664" y2="377.828125" fill="rgb(0, 0, 0)" stroke="rgb(60, 60, 60)" stroke-width="1px" opacity="0.25"></line><line x1="97.61458333333333" y1="0" x2="97.61458333333333" y2="377.828125" fill="rgb(0, 0, 0)" stroke="rgb(60, 60, 60)" stroke-width="1px" opacity="0.25"></line><line x1="146.421875" y1="0" x2="146.421875" y2="377.828125" fill="rgb(0, 0, 0)" stroke="rgb(60, 60, 60)" stroke-width="1px" opacity="0.25"></line><line x1="195.22916666666666" y1="0" x2="195.22916666666666" y2="377.828125" fill="rgb(0, 0, 0)" stroke="rgb(60, 60, 60)" stroke-width="1px" opacity="0.25"></line><line x1="244.03645833333334" y1="0" x2="244.03645833333334" y2="377.828125" fill="rgb(0, 0, 0)" stroke="rgb(60, 60, 60)" stroke-width="1px" opacity="0.25"></line><line x1="292.84375" y1="0" x2="292.84375" y2="377.828125" fill="rgb(0, 0, 0)" stroke="rgb(60, 60, 60)" stroke-width="1px" opacity="0.25"></line><line x1="341.6510416666667" y1="0" x2="341.6510416666667" y2="377.828125" fill="rgb(0, 0, 0)" stroke="rgb(60, 60, 60)" stroke-width="1px" opacity="0.25"></line><line x1="390.4583333333333" y1="0" x2="390.4583333333333" y2="377.828125" fill="rgb(0, 0, 0)" stroke="rgb(60, 60, 60)" stroke-width="1px" opacity="0.25"></line><line x1="439.265625" y1="0" x2="439.265625" y2="377.828125" fill="rgb(0, 0, 0)" stroke="rgb(60, 60, 60)" stroke-width="1px" opacity="0.25"></line><line x1="488.0729166666667" y1="0" x2="488.0729166666667" y2="377.828125" fill="rgb(0, 0, 0)" stroke="rgb(60, 60, 60)" stroke-width="1px" opacity="0.25"></line><line x1="536.8802083333333" y1="0" x2="536.8802083333333" y2="377.828125" fill="rgb(0, 0, 0)" stroke="rgb(60, 60, 60)" stroke-width="1px" opacity="0.25"></line><line x1="585.6875" y1="0" x2="585.6875" y2="377.828125" fill="rgb(0, 0, 0)" stroke="rgb(60, 60, 60)" stroke-width="1px" opacity="0.25"></line></g><g><line x1="0" y1="377.828125" x2="585.6875" y2="377.828125" fill="rgb(0, 0, 0)" stroke="rgb(60, 60, 60)" stroke-width="1px" opacity="0.25"></line><line x1="0" y1="330.599609375" x2="585.6875" y2="330.599609375" fill="rgb(0, 0, 0)" stroke="rgb(60, 60, 60)" stroke-width="1px" opacity="0.25"></line><line x1="0" y1="283.37109375" x2="585.6875" y2="283.37109375" fill="rgb(0, 0, 0)" stroke="rgb(60, 60, 60)" stroke-width="1px" opacity="0.25"></line><line x1="0" y1="236.142578125" x2="585.6875" y2="236.142578125" fill="rgb(0, 0, 0)" stroke="rgb(60, 60, 60)" stroke-width="1px" opacity="0.25"></line><line x1="0" y1="188.9140625" x2="585.6875" y2="188.9140625" fill="rgb(0, 0, 0)" stroke="rgb(60, 60, 60)" stroke-width="1px" opacity="0.25"></line><line x1="0" y1="141.685546875" x2="585.6875" y2="141.685546875" fill="rgb(0, 0, 0)" stroke="rgb(60, 60, 60)" stroke-width="1px" opacity="0.25"></line><line x1="0" y1="94.45703125" x2="585.6875" y2="94.45703125" fill="rgb(0, 0, 0)" stroke="rgb(60, 60, 60)" stroke-width="1px" opacity="0.25"></line><line x1="0" y1="47.228515625" x2="585.6875" y2="47.228515625" fill="rgb(0, 0, 0)" stroke="rgb(60, 60, 60)" stroke-width="1px" opacity="0.25"></line><line x1="0" y1="0" x2="585.6875" y2="0" fill="rgb(0, 0, 0)" stroke="rgb(60, 60, 60)" stroke-width="1px" opacity="0.25"></line></g></g></g><g><g><line x1="0" y1="330.599609375" x2="585.6875" y2="330.599609375" fill="rgb(0, 0, 0)" stroke="rgb(153, 153, 153)" stroke-width="1.5px"></line></g></g><g><g><line x1="48.807291666666664" y1="0" x2="48.807291666666664" y2="377.828125" fill="rgb(0, 0, 0)" stroke="rgb(153, 153, 153)" stroke-width="1.5px"></line></g></g><g><g><g><g><g><path stroke="rgb(255, 112, 67)" stroke-width="2px" d="M71.74671875,-15.978670668580492L73.69901041666667,16.95076803424712L74.43111979166666,43.57767126426023L74.67515625,61.74676601280993L76.38341145833333,86.73069620024216L77.11552083333332,107.12414870143544L77.60359375,122.76762846400362L77.84763020833333,133.80140116040218L78.09166666666667,142.0330980416347L79.0678125,153.07002781015947L79.31184895833333,161.13323652996124L79.55588541666667,167.38023190496915L80.28799479166666,175.17073346366055L80.53203125,181.13324750846385L81.26414062500001,188.40658560587036L82.24028645833333,197.32766055751492L82.728359375,204.81002562928592L83.21643229166666,211.3359161277318L83.46046874999999,216.23604506142757L83.70450520833333,220.1390076204289L83.94854166666667,223.42244058338102L84.92468749999999,228.95684888820233L85.41276041666667,233.94467430913673L86.14486979166668,239.3040508989586L86.38890624999999,243.2744637107428L86.63294270833333,246.3951066400275L87.121015625,249.69638099108136L87.36505208333334,252.3683930410981L87.60908854166668,254.6477567238593L88.34119791666667,257.9562662967553L88.82927083333334,261.1653884988135L89.07330729166667,263.6827218294326L89.56138020833333,266.3380973987689L89.80541666666666,268.48500790367785L90.53752604166667,271.3622600047723L91.75770833333334,275.5117915593705L92.00174479166667,278.45446262783537L92.24578125000001,280.6629917224093L92.73385416666666,282.8448224609759L92.977890625,284.56819546833435L93.46596354166667,286.40343904871224L93.95403645833333,288.27074448768184L94.19807291666666,289.7615256867402L94.442109375,291.01813311681707L94.68614583333333,292.1261938319776L95.17421875000001,293.4758010751589L95.41825520833332,294.61653054410124L97.12651041666666,297.41960300034225L98.10265625000001,300.1696860845205L99.07880208333333,302.795678734524L99.32283854166667,304.60181024598063L99.56687500000001,305.91092748476854L100.54302083333333,307.54875377195947L101.27513020833334,309.1218976562612L102.00723958333333,310.61716018768504L102.25127604166667,311.6898126903078L102.98338541666668,312.83641036756643L103.22742187499999,313.6845083483923L103.71549479166667,314.5028119226258L103.95953125,315.1432764700628L104.20356770833334,315.6736442049013L104.69164062499999,316.2741151847402L104.93567708333333,316.7707107299542L105.42375,317.33193244049403L105.66778645833334,317.7957356560317L105.91182291666668,318.19813599234146L106.64393229166667,318.79476870395735L107.37604166666667,319.4835459749102L108.59622395833334,320.3978324018836L109.08429687499999,321.1303296933007L109.57236979166666,321.74490622798396L109.81640625,322.1980134506571L111.03658854166666,322.86188657086774L111.76869791666667,323.4730607497077L112.01273437500001,323.90722774975785L112.25677083333333,324.23348062844445L112.50080729166666,324.4933330163501L112.98888020833333,324.7726870305504L113.96502604166666,325.1691246816555L114.45309895833333,325.5129060970151L114.94117187500001,325.81976932078027L115.42924479166666,326.0993968676175L116.64942708333332,326.4851809617904L117.1375,326.7961049498157L118.11364583333334,327.1293669549308L119.333828125,327.49169545745445L119.82190104166666,327.76804179756994L120.06593749999999,327.9621170962283L120.798046875,328.15875692336135L121.28611979166668,328.3265402539902L121.53015624999999,328.451061676081L121.77419270833333,328.5489488303488L122.262265625,328.65206148577187L122.50630208333334,328.7351656964329L122.75033854166668,328.8056491889779L123.726484375,328.9245514013409L123.97052083333334,329.01364676921304L124.45859374999999,329.1010256680607L125.190703125,329.2005576072341L126.16684895833333,329.31653099469276L126.41088541666666,329.39908409603345L126.654921875,329.46116888638534L126.89895833333334,329.5105670002502L127.38703124999999,329.56332421111324L128.119140625,329.62686365897514L128.36317708333334,329.6749092723418L128.60721354166665,329.7133208163761L129.33932291666667,329.7631822629412L129.58335937500001,329.8014202056976L130.07143229166667,329.84012962136876L131.53565104166665,329.90422163634275L132.02372395833333,329.95435494185847L132.75583333333333,330.0003238514669L132.99986979166667,330.0327939784471L133.48794270833332,330.06148073638195L133.73197916666666,330.08302103280477L134.95216145833334,330.1150810793904L135.19619791666668,330.13768245256273L135.68427083333333,330.15755478284404L136.17234375,330.1752642254741L136.41638020833332,330.1885979494631L136.66041666666666,330.1991891726817L137.39252604166666,330.21265886562855L137.6365625,330.22290724342935L138.368671875,330.23499724530393L138.61270833333333,330.24405805099434L139.10078124999998,330.25286954534715L139.34481770833332,330.25973149450635L139.832890625,330.26679014994215L140.80903645833334,330.2761584337626L141.05307291666668,330.2829228863671L141.297109375,330.2880743605337L141.78518229166667,330.29320850385864L142.02921874999998,330.29724406724245L142.761328125,330.302290336711L143.00536458333335,330.30611964130753L143.2494010416667,330.30918519370096L143.4934375,330.3117606690688L143.98151041666665,330.3146894310538L144.225546875,330.3170971559047L144.46958333333333,330.31916671143415L144.71361979166667,330.32100920558094L146.90994791666668,330.3266316008817L147.153984375,330.330426663328L147.64205729166667,330.3335089280341L148.37416666666667,330.3364810684999L150.082421875,330.34056330721745L150.32645833333333,330.3433107923436L151.30260416666667,330.3460893796585L151.54664062499998,330.3480247399454L151.79067708333332,330.34944889426276L152.27875,330.3508142195756L152.76682291666665,330.35212536645696L153.74296875000002,330.3538440982004L155.939296875,330.35675437796226L156.18333333333334,330.35869295034996L156.42736979166668,330.36004556166455L156.67140625000002,330.3610436416705L157.15947916666664,330.3620071025201L157.40351562499998,330.3627634588213L158.135625,330.3637360054497L158.867734375,330.36481599819064L160.57598958333332,330.366538618044L160.82002604166667,330.36771859900296L161.0640625,330.36856715936074L161.30809895833332,330.3692191644295L161.796171875,330.3698854846002L162.04020833333334,330.37041539005253L162.28424479166668,330.3708677705735L162.77231770833333,330.3713964348885L163.01635416666667,330.3717988052943L163.26039062499999,330.37209780746946L163.74846354166667,330.37246407330855L164.23653645833332,330.3729320606899L164.48057291666666,330.37332995873686L165.45671875,330.3740131494183L167.16497395833332,330.3751535236323L167.89708333333334,330.37619841544836L168.14111979166668,330.37689224487025L168.62919270833333,330.37749508276494L169.11726562500002,330.37799187133635L169.84937499999998,330.3785637914631L172.53377604166664,330.37933352327343L173.26588541666666,330.37977057200106L173.509921875,330.3797488020975L173.75395833333334,330.3796513880778L174.24203125,330.37877974924567L174.73010416666668,330.37762304438985L174.97414062500002,330.3765171970499L175.46221354166664,330.3747527246813L176.68239583333335,330.37154428838767L176.92643229166666,330.3695096067448L178.39065104166664,330.36964033171404L178.87872395833332,330.3707025349609L179.12276041666667,330.37199051373955L179.366796875,330.37309942115513L179.61083333333332,330.374062105777L179.85486979166666,330.3746133767942L180.09890625,330.37485287809545L180.34294270833334,330.37476872737585L180.58697916666668,330.37456494569L180.83101562500002,330.37403310428317L181.07505208333333,330.373353872639L181.56312499999999,330.37173099353134L182.295234375,330.36861990837366L182.53927083333332,330.36642429858955L182.78330729166666,330.36478607233363L183.27138020833334,330.36367152788154L184.24752604166667,330.36346270199704L184.73559895833333,330.3642209323225L185.22367187499998,330.36558406962695L186.19981770833334,330.3679304325535L186.44385416666668,330.36958480267623L186.687890625,330.3705568411855L187.17596354166668,330.37088206259807L187.66403645833336,330.3702698422899L188.15210937499998,330.36887098076375L188.64018229166666,330.3669750919207L188.88421875,330.36539011606436L189.616328125,330.36347909869323L190.10440104166668,330.36233452410664L190.34843750000002,330.3619395975469L190.59247395833336,330.36193162813515L190.83651041666664,330.3623753429892L191.08054687499998,330.36289060150267L191.32458333333332,330.3636965546753L191.81265625,330.36493171043594L192.05669270833334,330.36605915334275L193.27687500000002,330.3679959637978L193.52091145833336,330.3689214516816L194.00898437499998,330.3689371577561L194.25302083333332,330.3685900578505L194.49705729166666,330.3679743604373L195.22916666666666,330.3662733790464L195.71723958333334,330.3643432218678L196.20531250000002,330.3628373959398L196.69338541666664,330.36228510913986L197.18145833333332,330.3625968000415L197.66953125,330.36338044969057L197.91356770833332,330.3641819492899L198.15760416666666,330.3651643403469L198.88971354166668,330.3668908975574L199.86585937499999,330.3681816897413L200.10989583333333,330.36881258455566L200.59796875,330.36852444816844L200.84200520833332,330.3678836483186L201.330078125,330.366587744391L202.30622395833333,330.3648793655085L203.52640624999998,330.3643055821581L205.23466145833333,330.3662709682378L205.47869791666668,330.3676212731774L205.96677083333336,330.3686513264433L206.21080729166667,330.3691721337154L206.45484374999998,330.36942497528656L206.69888020833332,330.3693937162131L206.94291666666666,330.36910107775265L207.186953125,330.3685226423419L207.67502604166665,330.36733885244587L207.9190625,330.36634130041074L208.89520833333336,330.3650811494717L209.13924479166664,330.36428672933863L209.62731770833332,330.36405133284836L210.115390625,330.36443983572997L210.8475,330.36587726064374L211.33557291666668,330.3672377297534L211.57960937500002,330.36818313367536L211.82364583333336,330.368958986175L212.55575520833332,330.36949055425157L212.79979166666666,330.36970077604326L213.043828125,330.3695220471618L213.28786458333335,330.3691032818644L213.53190104166666,330.3684820139733L214.01997395833334,330.3673472289653L214.26401041666668,330.36645092866377L214.50804687500002,330.36573398589525L214.99611979166664,330.36509030966795L215.24015624999998,330.3646938256615L215.48419270833332,330.36434766660966L215.72822916666667,330.36435768853886L215.972265625,330.36443569462716L216.21630208333332,330.3648511737904L216.704375,330.3657464699266L216.94841145833334,330.3665015090986L217.68052083333333,330.3678011882046L218.65666666666667,330.3690678037227L219.38877604166666,330.3691023938106L219.6328125,330.3689204470465L219.87684895833334,330.3684854821503L220.364921875,330.36760770792193L220.60895833333333,330.3668662356488L220.85299479166667,330.36609586172335L221.09703125000001,330.3654268288465L221.58510416666667,330.3651206970611L221.82914062499998,330.36504026010437L222.07317708333332,330.365278564386L223.04932291666668,330.3662679953709L224.02546875000002,330.3678253070852L224.26950520833336,330.3688943835909L224.75757812499998,330.3696069756613L225.00161458333332,330.36998722924204L225.24565104166666,330.3701331101896L225.4896875,330.3701670764501L225.73372395833334,330.36995490246505L225.97776041666665,330.3696862606011L226.70986979166668,330.36865958389166L226.95390625000002,330.3677699921177L228.418125,330.3669306364307L228.90619791666666,330.36691002063634L229.150234375,330.36703994349386L229.39427083333334,330.36757905913254L229.63830729166668,330.3681140753108L230.12638020833336,330.36891069597357L230.85848958333332,330.3698883130031L231.10252604166666,330.3705110238162L231.83463541666666,330.37074433074923L232.078671875,330.37066092243026L232.32270833333334,330.3704682337879L232.81078125000002,330.3696698768326L233.29885416666664,330.36841136262456L234.03096354166667,330.3669637184986L234.275,330.36615600892816L234.76307291666666,330.36589715380956L235.49518229166668,330.36685649705225L235.73921875000002,330.36792957667177L235.98325520833333,330.36889814931436L236.47132812499999,330.3699060978374L236.71536458333333,330.37067024769743L236.95940104166667,330.3711632477383L237.44747395833332,330.371345509362L237.69151041666666,330.3715206616774L237.935546875,330.371496963911L239.15572916666667,330.37026112646737L240.13187499999998,330.3687538613562L240.37591145833332,330.36756267459816L240.863984375,330.3667160205443L241.35205729166668,330.3668927897017L241.84013020833333,330.3677961242605L242.08416666666668,330.3687486882849L242.32820312500002,330.3695947853252L242.57223958333336,330.3704150164604L242.81627604166667,330.37107778703523L243.06031249999998,330.3715771871379L243.54838541666666,330.3718560814889L244.03645833333334,330.3718133035962L244.52453125,330.37128814536675L245.25664062500002,330.37022149359643L245.74471354166664,330.36938707117565L245.98874999999998,330.3688433318638L246.23278645833332,330.3684450412972L247.20893229166666,330.3683644297854L247.69700520833334,330.36844737430874L247.94104166666668,330.36849109657123L248.42911458333336,330.3687239763041L249.16122395833332,330.3698287535265L249.649296875,330.3707917345348L249.89333333333335,330.37135441651503L250.13736979166666,330.3714789295107L250.86947916666668,330.37097535174956L251.60158854166664,330.3702048907179L251.84562499999998,330.369704554773L252.33369791666667,330.36930519177196L252.82177083333332,330.36927152672104L253.30984375,330.36978732010465L254.53002604166667,330.3702564831573L255.01809895833333,330.36986910072255L255.26213541666667,330.36928913781964L255.506171875,330.3688443137317L255.75020833333332,330.3685521875223L256.4823177083333,330.3693163240571L257.94653645833336,330.3695434683334L258.434609375,330.3694363373598L258.67864583333335,330.3694400070585L258.92268229166666,330.3694776108069L259.16671875000003,330.36977782146835L259.41075520833334,330.3700763776776L260.38690104166665,330.3708817111758L260.8749739583333,330.37158167377385L261.1190104166667,330.37222482761644L261.8511197916667,330.37266139963026L262.09515625,330.3728757979576L262.33919270833337,330.37280797876736L262.5832291666666,330.3727381549787L262.827265625,330.37249070431324L263.3153385416667,330.37197930558716L263.559375,330.3716196246934L263.80341145833336,330.37116256056754L264.04744791666667,330.370759352774L264.53552083333335,330.3698402333326L265.26763020833334,330.3626426304902L265.75570312499997,330.36438390618116L265.99973958333334,330.3668373711086L266.4878125,330.3691968043742L266.73184895833333,330.3706757193836L267.4639583333333,330.37198906259545L267.7079947916667,330.37265994488814L268.1960677083334,330.3729188757516L268.44010416666663,330.37309210638864L270.148359375,330.37184191647606L270.39239583333335,330.3711311229918L270.63643229166667,330.3706284021357L270.88046875000003,330.370492564153L271.12450520833335,330.370495278319L271.36854166666666,330.3706911399985L271.61257812499997,330.37097042490535L272.10065104166665,330.3713720989883L272.3446875,330.37184761194237L272.58872395833333,330.37212052453555L273.3208333333333,330.37209823630485L273.5648697916667,330.37164436607986L273.80890625,330.3711771801963L274.0529427083333,330.3705022407493L274.541015625,330.3700829992039L276.005234375,330.37007299812615L276.24927083333336,330.37018233750524L276.49330729166667,330.37012014287086L276.98138020833335,330.37027741058694L277.95752604166665,330.3710926193529L278.68963541666665,330.3720080090625L279.4217447916667,330.37247493565496L280.397890625,330.37176178374125L281.13,330.37117567389487L281.3740364583333,330.3707141989497L281.6180729166667,330.3705505190829L282.10614583333336,330.3703616984387L282.35018229166667,330.37008453925995L282.59421875,330.370164471827L283.32632812500003,330.3706346421612L283.57036458333334,330.3711127791664L284.05843749999997,330.3716926145854L284.54651041666665,330.3722607824964L284.790546875,330.37265080454574L285.27861979166664,330.37289070008063L285.7666927083333,330.37284986275245L286.0107291666667,330.3728002366963L286.4988020833334,330.3725067031782L286.986875,330.3721239276838L287.2309114583333,330.3716742479551L287.4749479166667,330.37135181465476L287.718984375,330.37086541046676L288.45109375,330.3706073033801L288.69513020833335,330.37052502659503L288.93916666666667,330.3707160333174L289.67127604166666,330.3710980255095L289.91531249999997,330.3716053286515L291.8676041666667,330.3722479836269L292.5997135416667,330.3722754586238L292.84375,330.37225877570756L293.3318229166667,330.37192422124946L293.81989583333336,330.37149650185415L294.0639322916667,330.3709721487577L294.79604166666667,330.3710768831102L295.04007812500004,330.371146479815L295.5281510416667,330.37141749460574L295.77218750000003,330.3718162604713L296.0162239583333,330.37206728460114L296.26026041666665,330.3723817118226L296.99236979166665,330.37274044154543L298.9446614583333,330.3725133534433L299.1886979166667,330.3723101972415L299.432734375,330.37193206741995L299.9208072916667,330.3715149649625L300.40888020833336,330.3713045103901L300.65291666666667,330.3713353933862L300.89695312500004,330.3712700665531L301.38502604166666,330.371407438701L301.8730989583333,330.37172504610345L302.1171354166667,330.3721835752235L302.36117187499997,330.37255037738646L303.09328124999996,330.3730292891246L303.33731770833333,330.37316612842386L303.58135416666664,330.37334867259125L304.8015364583333,330.3730409787987L305.289609375,330.3725786330376L305.5336458333333,330.3723803889788L306.02171875,330.3722007638171L306.26575520833336,330.3719400758072L306.75382812500004,330.37189185958425L308.21804687499997,330.3723384687413L308.4620833333333,330.3727623108214L308.95015624999996,330.3730263178195L309.43822916666664,330.3731866677732L310.414375,330.37327353632037L310.9024479166667,330.37323718865827L311.3905208333333,330.37310490442246L311.87859375,330.3727607490703L312.3666666666667,330.3725456801245L312.85473958333336,330.37240288335096L313.09877604166667,330.3723989179839L313.34281250000004,330.3725950688189L313.58684895833335,330.3725861321142L313.8308854166667,330.3727621576857L314.80703124999997,330.37322441368457L315.29510416666665,330.3734983802291L315.53914062499996,330.37342381064605L317.003359375,330.37318276384775L317.4914322916667,330.37282953463045L317.97950520833336,330.37243626355445L318.2235416666667,330.37230874971937L318.467578125,330.3722802367055L319.93179687500003,330.3728934093501L320.66390624999997,330.37347632785986L321.15197916666665,330.37367662517266L321.88408854166664,330.3735318926359L322.61619791666664,330.3734158037337L322.860234375,330.37317972529274L323.3483072916667,330.3728406741885L323.59234375,330.3727727347262L323.8363802083333,330.3725258561527L324.0804166666667,330.3725586481806L324.56848958333336,330.37267138633115L324.8125260416667,330.3727737014926L325.30059895833335,330.3729690594166L325.54463541666667,330.37332066556974L325.78867187500003,330.37349733533176L326.52078124999997,330.3738498264988L326.7648177083333,330.374056105495L327.25289062499996,330.37415389346177L329.2051822916667,330.37348753833567L329.44921875,330.3731313786312L329.6932552083333,330.3728546980022L329.9372916666667,330.37282245126505L330.6694010416667,330.37283118154676L330.9134375,330.3730253921509L331.15747395833336,330.37304411730605L331.88958333333335,330.3734755183488L332.1336197916667,330.3737757873389L332.37765625000003,330.37413514735306L333.10976562499997,330.3744190989938L336.038203125,330.37368393727394L336.7703125,330.37342617359127L337.25838541666667,330.37332300582113L337.50242187500004,330.37332243247045L337.99049479166666,330.37358534188957L338.23453125000003,330.3739470494953L338.96664062499997,330.37442519256274L339.69874999999996,330.37484846140774L339.94278645833333,330.37489971288977L340.18682291666664,330.37489780932776L340.430859375,330.37464873658075L340.6748958333333,330.3745091388126L340.91893229166664,330.3741489658523L341.16296875,330.37399136083644L341.4070052083333,330.37363668823286L341.895078125,330.373226768891L342.3831510416667,330.3729811956272L342.6271875,330.37302256286836L343.1152604166667,330.3731441935268L343.60333333333335,330.3735198899447L344.09140625000003,330.37403154095045L344.33544270833335,330.3744007326534L344.5794791666667,330.37482013815355L344.82351562499997,330.3750306863898L345.0675520833333,330.3752623923716L345.31158854166665,330.37527391496695L346.287734375,330.3750728669626L347.5079166666667,330.3745909312956L347.751953125,330.37413579520205L348.2400260416667,330.3736050992023L348.4840625,330.3733443155828L349.46020833333336,330.3734633138574L349.70424479166667,330.3736693302343L349.94828125000004,330.3740940186046L350.4363541666667,330.3746039327036L351.16846354166665,330.3750146996994L351.90057291666665,330.3753829407316L352.3886458333333,330.3754873652609L352.87671875,330.37526229147477L353.1207552083333,330.37483194286665L353.608828125,330.3742319654594L353.8528645833333,330.37389694953606L354.58497395833336,330.3734866542262L354.8290104166667,330.37341854063675L355.073046875,330.3733350820706L355.56111979166667,330.37348746452835L355.80515625000004,330.37383822889836L356.04919270833335,330.37411751859946L356.53726562500003,330.3745932693664L356.7813020833333,330.3750584138935L357.0253385416667,330.3753200698889L357.26937499999997,330.37566132467225L357.51341145833334,330.37582686517635L357.75744791666665,330.37604377252757L358.9776302083333,330.37555767114327L359.22166666666664,330.37526772185635L359.7097395833333,330.37476840585265L360.6858854166667,330.37414152406404L360.929921875,330.37367291758505L361.4179947916667,330.3737159470893L362.39414062500003,330.37435485774324L362.8822135416667,330.3749248164422L363.3702864583333,330.3753496303742L363.85835937499996,330.37575591828136L364.10239583333333,330.3760920513259L364.34643229166664,330.37614962818543L364.59046875,330.37618474181295L365.07854166666664,330.37584842165927L365.8106510416667,330.37487020130266L366.0546875,330.3742750536792L366.5427604166667,330.37387591518007L366.786796875,330.37361484861435L367.03083333333336,330.37362025582604L367.51890625,330.37395020681134L368.49505208333335,330.3747505777103L368.98312500000003,330.37534877965584L369.2271614583333,330.3756160611729L369.71523437499997,330.37588314933373L369.95927083333333,330.3761161428354L370.6913802083333,330.37597388555105L370.93541666666664,330.3759044034957L372.1555989583333,330.3751362270403L372.3996354166667,330.37475180915186L372.643671875,330.3743570213828L372.88770833333336,330.3742774575991L373.37578125,330.374361886531L373.86385416666667,330.3745934360377L374.10789062500004,330.37467414623325L374.35192708333335,330.3749694760342L374.59596354166666,330.37508693203324L374.84000000000003,330.37535999835205L375.0840364583333,330.3754019762355L375.81614583333334,330.3757948926227L376.54825520833333,330.37605643271536L377.036328125,330.3760812526256L377.52440104166664,330.37596625642504L377.7684375,330.37584353425035L378.0124739583333,330.3754637778516L378.2565104166667,330.3752266816767L378.500546875,330.3748805791231L379.47669270833336,330.37445184020015L380.45283854166667,330.37458956707195L380.94091145833335,330.3749774885333L381.1849479166667,330.37547097256487L381.91705729166665,330.375928614688L382.16109374999996,330.3763643913412L382.40513020833333,330.3765749794461L383.1372395833333,330.37659999090874L383.8693489583333,330.37612600976564L384.1133854166667,330.37584688182454L384.357421875,330.3754452748967L384.8454947916667,330.3748501022777L385.08953125,330.3744588308902L385.33356770833336,330.3740868563058L386.06567708333336,330.37440253756097L386.55375000000004,330.37496945879434L386.79778645833335,330.3752716062573L387.0418229166667,330.3756918442447L387.28585937500003,330.37596215642424L387.5298958333333,330.3762898229785L387.77393229166665,330.376372506169L388.26200520833333,330.37656304819063L388.50604166666665,330.37675880684884L389.23815104166664,330.3765789939362L390.4583333333333,330.3760125656287L393.3867708333333,330.37625431820067L393.6308072916667,330.3763069103543L393.87484374999997,330.37650835887393L394.11888020833334,330.37663180430934L395.09502604166664,330.37651668294046L395.82713541666664,330.3763101911803L396.071171875,330.3760153579543L396.5592447916667,330.37562382143693L396.80328125,330.37548067429856L397.0473177083333,330.3752142632012L397.2913541666667,330.375161469094L397.77942708333336,330.375261896775L398.26750000000004,330.3755366458354L398.51153645833335,330.37565748157544L398.75557291666667,330.37594468265814L399.24364583333335,330.3763621504071L399.4876822916667,330.37647068103104L399.73171874999997,330.37656474250934L400.21979166666665,330.3767033244834L400.70786458333333,330.3767163904594L402.1720833333333,330.3763003527481L402.66015625,330.3761207502728L403.8803385416667,330.37611400589543L404.124375,330.37629620224243L405.10052083333335,330.3765356964574L406.32070312499997,330.3762289237059L406.56473958333333,330.3761124299967L407.54088541666664,330.37599697968574L408.51703125,330.37607139809256L409.249140625,330.3762776729059L409.98125,330.37663645976136L410.22528645833336,330.37673043747867L410.46932291666667,330.3768460435193L411.20143229166666,330.3766861143434L411.44546875000003,330.37671296459877L412.17757812499997,330.37631355699455L412.66565104166665,330.3760698317516L412.90968749999996,330.37598643728217L413.15372395833333,330.37583002365864L414.8619791666667,330.37620952540107L415.106015625,330.37637702515065L415.3500520833333,330.37666728114243L415.5940885416667,330.3767272117192L416.08216145833336,330.3769531964509L416.3261979166667,330.37718754335856L416.57023437500004,330.3772427724994L416.81427083333335,330.37732059028133L417.05830729166667,330.37724230223154L417.30234375000003,330.37721958828087L417.54638020833335,330.37702616675415L417.7904166666667,330.376963586065L418.03445312499997,330.37670919407924L418.76656249999996,330.3764647660994L419.25463541666664,330.3761398385283L420.4748177083333,330.3760090828887L420.7188541666667,330.3761702005752L420.962890625,330.37625043135995L421.4509635416667,330.37650789161916L423.15921875000004,330.37704657329147L423.6472916666667,330.3771894846836L424.86747395833333,330.3766496262825L425.11151041666665,330.37629852472213L426.08765625,330.376076936931L426.5757291666667,330.37617270954473L426.819765625,330.37617924117717L427.3078385416667,330.37633979342496L427.551875,330.37664559069196L428.0399479166667,330.37703440024137L428.283984375,330.37725137225755L429.74820312500003,330.3775490165012L429.9922395833333,330.37775169978033L430.2362760416667,330.37767023058973L431.45645833333333,330.37693851522425L431.70049479166664,330.37623356617064L433.8968229166667,330.3767037522797L434.140859375,330.377066693846L434.87296875000004,330.37774711605863L435.11700520833335,330.3780544153352L435.36104166666667,330.378272575368L435.84911458333335,330.37831668711647L436.33718749999997,330.37804400336L436.82526041666665,330.3775470744845L437.55736979166664,330.37667272148553L437.80140625,330.37624437951234L438.28947916666664,330.3760634119071L438.533515625,330.3758606423945L439.0215885416667,330.3759913162696L439.5096614583333,330.3762613414184L439.7536979166667,330.3766708096869L440.24177083333336,330.37716967299434L440.4858072916667,330.3775026723563L441.46195312500004,330.3778425393008L441.70598958333335,330.3780887165794L442.19406250000003,330.37822715358647L442.4380989583333,330.378103037936L442.68213541666665,330.3779992561087L442.92617187499997,330.37763045855286L443.41424479166665,330.3770586108393L443.65828124999996,330.37673797748175L443.9023177083333,330.37632537584824L444.14635416666664,330.37613801616396L445.1225,330.37605546228605L445.6105729166667,330.3762638235548L445.854609375,330.37635726683976L446.09864583333336,330.37672404103995L446.58671875,330.37733324752907L447.07479166666667,330.3779456030412L447.56286458333335,330.37846823534124L448.05093750000003,330.37871884793117L448.2949739583333,330.37875358719947L448.5390104166667,330.37874570385145L449.02708333333334,330.3783659295885L449.27111979166665,330.3778899632665L449.51515624999996,330.37747583753713L449.75919270833333,330.3768919986336L450.00322916666664,330.37651687790856L450.247265625,330.37605158581823L450.73533854166664,330.3755937794558L450.979375,330.37546663070094L451.711484375,330.3758629617065L451.9555208333333,330.376420800956L452.44359375,330.3771329449211L452.68763020833336,330.3775117675904L453.41973958333335,330.3780844687168L453.66377604166667,330.3783527454395L453.90781250000003,330.37866523713484L454.15184895833335,330.37880152096443L454.3958854166667,330.378937628269L454.8839583333333,330.3788899179681L455.86010416666664,330.37804407473556L456.3481770833333,330.37711473634334L456.59221354166664,330.37629481672343L456.83625,330.3759351402512L457.568359375,330.37584270063246L457.8123958333333,330.37611817733807L458.30046875,330.3767092413726L459.27661458333336,330.3776427959206L459.52065104166667,330.3782497708967L459.76468750000004,330.37872695379565L460.00872395833335,330.37893228049603L460.49679687500003,330.37904084732213L461.47294270833333,330.37856939145934L461.71697916666665,330.3781546750319L462.2050520833333,330.37747929246547L462.44908854166664,330.3767876586162L462.693125,330.3763146389607L462.9371614583333,330.37583792719L463.425234375,330.3755567645147L464.15734375,330.376142569399L464.40138020833336,330.37659055636703L464.6454166666667,330.37720367509763L464.889453125,330.3776542138943L465.13348958333336,330.37824636142705L465.86559895833335,330.37886755176487L466.10963541666666,330.37927461394617L467.08578124999997,330.37912460167934L467.32981770833334,330.37878057421733L467.81789062499996,330.3782284079067L468.06192708333333,330.37774887943215L468.30596354166664,330.3770881088887L469.282109375,330.37632600679035L470.01421875,330.376404846043L470.5022916666667,330.3768966374803L471.2344010416667,330.37769803199484L471.47843750000004,330.3784094586738L471.72247395833335,330.3787928324643L471.96651041666667,330.3791842102641L472.21054687500003,330.37938890476767L472.6986197916667,330.379516946182L472.94265624999997,330.3796276866192L473.1866927083333,330.37941322152807L473.91880208333333,330.37877788051253L474.16283854166664,330.37797856380587L474.6509114583333,330.37712501951074L474.89494791666664,330.37666459056L475.138984375,330.376176245907L475.87109375,330.37614185336065L476.3591666666667,330.3765529772387L476.603203125,330.37693957476296L476.84723958333336,330.3774907361681L477.0912760416667,330.37792709831126L478.79953125000003,330.3786862991898L479.0435677083333,330.37895943222077L479.77567708333333,330.37864676423857L480.995859375,330.3775349749192L481.9720052083333,330.37702357973467L482.460078125,330.37698583331814L482.9481510416667,330.3774038899417L483.43622395833336,330.3779491634723L483.68026041666667,330.37857239761763L483.92429687500004,330.37901863731184L484.16833333333335,330.37943506923085L485.1444791666667,330.37958503729004L485.38851562499997,330.37948989215954L485.63255208333334,330.37940678060966L486.12062499999996,330.3789626911285L486.36466145833333,330.37827239617536L486.60869791666664,330.37781934914636L487.58484375,330.37697413579014L488.0729166666667,330.37659581494825L488.5609895833333,330.3768084369335L489.0490625,330.37739137081667L489.29309895833336,330.37786205620944L489.78117187500004,330.37854971594066L490.75731770833335,330.37926958791326L491.24539062499997,330.3795816219682L491.4894270833333,330.37964771915955L492.22153645833333,330.3790387294556L492.9536458333333,330.3781695562722L493.9297916666667,330.37715105611886L494.4178645833333,330.37692426964117L494.6619010416667,330.37689786266185L495.3940104166667,330.37762010816084L496.37015625000004,330.3787869419953L496.61419270833335,330.3795221469571L496.8582291666667,330.38002889412087L497.10226562500003,330.380187974672L497.83437499999997,330.3799743002034L498.07841145833333,330.379562528772L498.32244791666665,330.3792368159784L498.8105208333333,330.3785328256272L499.05455729166664,330.3776690243092L499.29859375,330.37715843645674L499.7866666666667,330.37673079835736L500.030703125,330.3763500385019L500.7628125,330.3765975808938L501.00684895833336,330.3768524652546L501.494921875,330.37739130392333L501.98299479166667,330.3782326193223L502.22703125000004,330.37900026563375L502.47106770833335,330.37955405147636L504.17932291666665,330.37968887390167L504.42335937499996,330.37939320973777L504.66739583333333,330.3791142806685L504.91143229166664,330.37855412395936L506.3756510416667,330.3773269732856L506.6196875,330.3768111026791L506.8637239583333,330.37651312873066L507.1077604166667,330.37665239421233L507.351796875,330.3769374292133L507.8398697916667,330.3777468109544L508.57197916666667,330.37904646817503L509.3040885416667,330.3799692574753L510.28023437499996,330.3798784177658L510.52427083333333,330.37964445408437L510.76830729166664,330.3790378784098L511.01234375,330.3785604936936L511.2563802083333,330.3779315829796L511.744453125,330.3771980282853L511.9884895833333,330.37674238347836L512.9646354166666,330.3767011089374L513.6967447916667,330.3773025710098L513.94078125,330.3780598147381L514.672890625,330.379083069076L514.9169270833333,330.3798918043542L515.1609635416667,330.38030856575887L515.405,330.380645560011L515.6490364583333,330.3806927897969L516.137109375,330.3804787370552L516.3811458333333,330.3802997968563L516.6251822916666,330.37997304887364L516.86921875,330.37968990953664L517.1132552083334,330.37912124527224L518.0894010416667,330.3780498121115L518.3334375000001,330.3773578219042L518.5774739583333,330.3767868412752L519.3095833333333,330.37671076726843L519.7976562499999,330.3771185197852L520.0416927083334,330.3776313341526L520.2857291666667,330.37834484778864L520.7738020833333,330.37925248546014L521.0178385416666,330.37990788601036L521.261875,330.38053657168973L521.7499479166667,330.38095081549704L521.993984375,330.38110726271685L522.72609375,330.3807009098969L523.2141666666666,330.37996556088507L523.7022395833334,330.3789913317449L523.9462760416667,330.3781651783462L524.4343489583333,330.3773880094417L525.1664583333333,330.3770363184666L525.65453125,330.3771545958716L525.8985677083333,330.37732757932423L526.1426041666666,330.37778897392104L526.6306770833334,330.3785588613639L527.11875,330.37945795811015L527.3627864583333,330.3800435737877L527.6068229166667,330.3805894286016L528.58296875,330.3806989538858L528.8270052083334,330.3804702024756L529.315078125,330.3797372984069L529.8031510416666,330.37889349654256L531.0233333333333,330.3780027756959L531.9994791666667,330.37787482579654L532.243515625,330.37785070834445L532.4875520833333,330.3781483513699L532.7315885416666,330.37847585049076L535.6600260416667,330.3786953386969L536.1480989583333,330.37837804868076L536.6361718750001,330.3778789392211" style="fill: none;" fill="none"></path></g></g></g></g><g opacity="0.20000000298023224"><g><g><g><path stroke="rgb(255, 112, 67)" stroke-width="2px" d="M70.52653645833334,-21.91845892333987L71.74671875,14.851523300170868L73.69901041666667,66.34492608737946L74.43111979166666,83.51802610874176L74.67515625,89.00040813541409L76.38341145833333,124.20659148120882L77.11552083333332,137.71432745313643L77.60359375,146.2328481078148L77.84763020833333,150.35206020498276L78.09166666666667,154.38064336347577L79.0678125,169.62542246294024L79.31184895833333,173.22804960966113L79.55588541666667,176.7507249674797L80.28799479166666,186.85648580169678L80.53203125,190.07701857566835L81.26414062500001,199.31659275197984L82.24028645833333,210.70927298498154L82.728359375,216.0335732369423L83.21643229166666,221.12475187540053L83.46046874999999,223.58623846197128L83.70450520833333,225.99345145893096L83.94854166666667,228.34759002780913L84.92468749999999,237.2584613454342L85.41276041666667,241.4264124405384L86.14486979166668,247.34311578369142L86.38890624999999,249.2300829284191L86.63294270833333,251.07607103395463L87.121015625,254.64829251766207L87.36505208333334,256.3764111161232L87.60908854166668,258.06680224800107L88.34119791666667,262.9190306560993L88.82927083333334,265.9790718019009L89.07330729166667,267.45872182536124L89.56138020833333,270.32116075277327L89.80541666666666,271.7053736610412L90.53752604166667,275.67813815641404L91.75770833333334,281.7360888912678L92.00174479166667,282.86846923053264L92.24578125000001,283.9757853642702L92.73385416666666,286.11756856882573L92.977890625,287.15325497937204L93.46596354166667,289.1563044192791L93.95403645833333,291.07170264613626L94.19807291666666,291.9976974853277L94.442109375,292.9030442619324L94.68614583333333,293.7882849047184L95.17421875000001,295.5002119399309L95.41825520833332,296.32762474751473L97.12651041666666,301.6242116847038L98.10265625000001,304.2948107107878L99.07880208333333,306.7346677095294L99.32283854166667,307.31100751316546L99.56687500000001,307.8746033429503L100.54302083333333,310.0054932027459L101.27513020833334,311.48161348271367L102.00723958333333,312.86005398482087L102.25127604166667,313.298791444242L102.98338541666668,314.55630688345434L103.22742187499999,314.9566553196311L103.71549479166667,315.7302672839761L103.95953125,316.10397329121827L104.20356770833334,316.46919580715894L104.69164062499999,317.1748216544986L104.93567708333333,317.51560404777524L105.42375,318.17376500630377L105.66778645833334,318.49144047933817L105.91182291666668,318.80173649680614L106.64393229166667,319.68971777138114L107.37604166666667,320.5167118813396L108.59622395833334,321.7692620423436L109.08429687499999,322.2290756304264L109.57236979166666,322.6667710300088L109.81640625,322.8776742846668L111.03658854166666,323.85769625118377L111.76869791666667,324.3898220179677L112.01273437500001,324.558478249833L112.25677083333333,324.72285994647444L112.50080729166666,324.88311159820853L112.98888020833333,325.1917180518508L113.96502604166666,325.7637811583131L114.45309895833333,326.0285782200545L114.94117187500001,326.28006415642795L115.42924479166666,326.51883818787337L116.64942708333332,327.06385710304977L117.1375,327.2624909318537L118.11364583333334,327.62925996260344L119.333828125,328.03518821123987L119.82190104166666,328.1825613077432L120.06593749999999,328.2532300442159L120.798046875,328.45371666406095L121.28611979166668,328.5782152499333L121.53015624999999,328.6378438092172L121.77419270833333,328.6957795617506L122.262265625,328.80673046890644L122.50630208333334,328.8598220124245L122.75033854166668,328.9113744277954L123.726484375,329.10290471988543L123.97052083333334,329.1472898210213L124.45859374999999,329.2320940163322L125.190703125,329.34985551599414L126.16684895833333,329.4904910758808L126.41088541666666,329.5229137480445L126.654921875,329.5542960719131L126.89895833333334,329.5846641710475L127.38703124999999,329.6424600274079L128.119140625,329.72217283076793L128.36317708333334,329.74697769239174L128.60721354166665,329.77093813242766L129.33932291666667,329.83797443278877L129.58335937500001,329.8587771198321L130.07143229166667,329.89819374487547L131.53565104166665,330.0003596588038L132.02372395833333,330.0295549001321L132.75583333333333,330.0692772158794L132.99986979166667,330.08149916891756L133.48794270833332,330.1045108732842L133.73197916666666,330.11533147743904L134.95216145833334,330.16317114926875L135.19619791666668,330.17158451232126L135.68427083333333,330.18736327826605L136.17234375,330.20182838941923L136.41638020833332,330.20859853544647L136.66041666666666,330.2150760075096L137.39252604166666,330.2328634050489L137.6365625,330.2382798101306L138.368671875,330.2531322481157L138.61270833333333,330.25764925953L139.10078124999998,330.26608678687643L139.34481770833332,330.27002441824504L139.832890625,330.2773781330958L140.80903645833334,330.29021085949336L141.05307291666668,330.2930695652738L141.297109375,330.2958015717836L141.78518229166667,330.30090971884596L142.02921874999998,330.30329741231816L142.761328125,330.30985974091385L143.00536458333335,330.31186359820236L143.2494010416667,330.3137835222911L143.4934375,330.31562388212046L143.98151041666665,330.3190825740313L144.225546875,330.32070874318106L144.46958333333333,330.3222710447283L144.71361979166667,330.32377294680106L146.90994791666668,330.33506519383286L147.153984375,330.3361192569975L147.64205729166667,330.3381323250933L148.37416666666667,330.34093927919866L150.082421875,330.34668666529376L150.32645833333333,330.3474320200328L151.30260416666667,330.3502572606308L151.54664062499998,330.3509277803758L151.79067708333332,330.3515851257388L152.27875,330.35286220754494L152.76682291666665,330.35409208677896L153.74296875000002,330.35642219581547L155.939296875,330.3611197976051L156.18333333333334,330.36160080893154L156.42736979166668,330.3620744786365L156.67140625000002,330.3625407616794L157.15947916666664,330.3634522937946L157.40351562499998,330.3638979932731L158.135625,330.3651948253922L158.867734375,330.3664359873021L160.57598958333332,330.36912254782396L160.82002604166667,330.3694885704415L161.0640625,330.3698399998974L161.30809895833332,330.3701971720327L161.796171875,330.3708849648563L162.04020833333334,330.37121024823097L162.28424479166668,330.371546341355L162.77231770833333,330.37218943136094L163.01635416666667,330.3724023609031L163.26039062499999,330.37254631073216L163.74846354166667,330.3730134720672L164.23653645833332,330.373634041762L164.48057291666666,330.3739268058073L165.45671875,330.37503793544045L167.16497395833332,330.37686408495347L167.89708333333334,330.37776575317235L168.14111979166668,330.3779329890031L168.62919270833333,330.378399339607L169.11726562500002,330.3787370541934L169.84937499999998,330.3794216716532L172.53377604166664,330.38048812098896L173.26588541666666,330.3804261450926L173.509921875,330.3797161472421L173.75395833333334,330.3795052670483L174.24203125,330.3774722909974L174.73010416666668,330.3758879871061L174.97414062500002,330.37485842604L175.46221354166664,330.3721060161283L176.68239583333335,330.3667316339472L176.92643229166666,330.3664575842805L178.39065104166664,330.36983641916794L178.87872395833332,330.3722958398312L179.12276041666667,330.3739224819075L179.366796875,330.3747627822785L179.61083333333332,330.3755061327098L179.85486979166666,330.3754402833199L180.09890625,330.3752121300474L180.34294270833334,330.3746425012965L180.58697916666668,330.3742592731612L180.83101562500002,330.3732353421729L181.07505208333333,330.3723350251727L181.56312499999999,330.36929667486993L182.295234375,330.363953280637L182.53927083333332,330.36313088391347L182.78330729166666,330.36232873294966L183.27138020833334,330.3619997112034L184.24752604166667,330.3631494631702L184.73559895833333,330.36535827781074L185.22367187499998,330.36762877558357L186.19981770833334,330.37144997694344L186.44385416666668,330.3720663578604L186.687890625,330.3720148989493L187.17596354166668,330.3713698947169L187.66403645833336,330.3693515118277L188.15210937499998,330.3667726884745L188.64018229166666,330.36413125865624L188.88421875,330.3630126522798L189.616328125,330.36061257263646L190.10440104166668,330.3606176622268L190.34843750000002,330.36134720770735L190.59247395833336,330.3619196740175L190.83651041666664,330.36304091527035L191.08054687499998,330.3636634892728L191.32458333333332,330.3649054844342L191.81265625,330.3667844440769L192.05669270833334,330.367750317703L193.27687500000002,330.37090117948037L193.52091145833336,330.3703096835073L194.00898437499998,330.36896071686783L194.25302083333332,330.36806940799204L194.49705729166666,330.3670508143175L195.22916666666666,330.36372190696L195.71723958333334,330.36144798609985L196.20531250000002,330.3605786570478L196.69338541666664,330.36145667894L197.18145833333332,330.36306433639396L197.66953125,330.3645559241641L197.91356770833332,330.3653841986889L198.15760416666666,330.3666379269324L198.88971354166668,330.3694807333732L199.86585937499999,330.370117878017L200.10989583333333,330.3697589267772L200.59796875,330.3680922435876L200.84200520833332,330.36692244854385L201.330078125,330.3646438884996L202.30622395833333,330.36231679718475L203.52640624999998,330.36344490713253L205.23466145833333,330.3692190473573L205.47869791666668,330.3696467305869L205.96677083333336,330.3701964063421L206.21080729166667,330.3699533446236L206.45484374999998,330.3698042376433L206.69888020833332,330.36934682760295L206.94291666666666,330.3686621200619L207.186953125,330.3676549892258L207.67502604166665,330.3655631676018L207.9190625,330.36484497235807L208.89520833333336,330.3631909230631L209.13924479166664,330.363095099139L209.62731770833332,330.363698238113L210.115390625,330.3650225900523L210.8475,330.3680333980145L211.33557291666668,330.3692784334179L211.57960937500002,330.3696012395583L211.82364583333336,330.37012276492453L212.55575520833332,330.3702879063664L212.79979166666666,330.3700161087308L213.043828125,330.36925395383963L213.28786458333335,330.36847513391825L213.53190104166666,330.36755011213666L214.01997395833334,330.36564505145327L214.26401041666668,330.3651064782115L214.50804687500002,330.3646585717425L214.99611979166664,330.364124795327L215.24015624999998,330.3640990996519L215.48419270833332,330.36382842803187L215.72822916666667,330.3643727214327L215.972265625,330.3645527037596L216.21630208333332,330.36547439253513L216.704375,330.3670894141309L216.94841145833334,330.3676340678567L217.68052083333333,330.3697507068636L218.65666666666667,330.3709677269999L219.38877604166666,330.3691542789424L219.6328125,330.3686475269003L219.87684895833334,330.3678330348059L220.364921875,330.36629104657936L220.60895833333333,330.36575402723906L220.85299479166667,330.3649403008353L221.09703125000001,330.3644232795313L221.58510416666667,330.3646614993829L221.82914062499998,330.36491960466935L222.07317708333332,330.3656360208085L223.04932291666668,330.3677521418482L224.02546875000002,330.37016127465665L224.26950520833336,330.3704979983494L224.75757812499998,330.370675863767L225.00161458333332,330.37055760961306L225.24565104166666,330.3703519316111L225.4896875,330.3702180258408L225.73372395833334,330.3696366414875L225.97776041666665,330.3692832978051L226.70986979166668,330.36711956882755L226.95390625000002,330.3664356044568L228.418125,330.36567160290014L228.90619791666666,330.3668790969448L229.150234375,330.3672348277802L229.39427083333334,330.3683877325906L229.63830729166668,330.3689165995782L230.12638020833336,330.37010562696776L230.85848958333332,330.37135473854744L231.10252604166666,330.3714450900359L231.83463541666666,330.3710942911487L232.078671875,330.37053580995183L232.32270833333334,330.37017920082434L232.81078125000002,330.36847234139964L233.29885416666664,330.36652359131256L234.03096354166667,330.3647922523096L234.275,330.36494444457253L234.76307291666666,330.36550887113157L235.49518229166668,330.3682955119163L235.73921875000002,330.369539196101L235.98325520833333,330.3703510082783L236.47132812499999,330.3714180206219L236.71536458333333,330.3718164724875L236.95940104166667,330.37190274779965L237.44747395833332,330.37161890179755L237.69151041666666,330.3717833901504L237.935546875,330.3714614172615L239.15572916666667,330.3684073703019L240.13187499999998,330.3664929636894L240.37591145833332,330.3657758944612L240.863984375,330.3654460394634L241.35205729166668,330.3671579434378L241.84013020833333,330.3691511260988L242.08416666666668,330.37017753432133L242.32820312500002,330.37086393088566L242.57223958333336,330.3716453631632L242.81627604166667,330.3720719428975L243.06031249999998,330.37232628729197L243.54838541666666,330.3722744230153L244.03645833333334,330.3717491367571L244.52453125,330.3705004080227L245.25664062500002,330.3686215159409L245.74471354166664,330.3681354375444L245.98874999999998,330.3680277228961L246.23278645833332,330.3678476054473L247.20893229166666,330.3682435125178L247.69700520833334,330.3685717910938L247.94104166666668,330.36855667996497L248.42911458333336,330.3690732959034L249.16122395833332,330.37148591936005L249.649296875,330.37223620604726L249.89333333333335,330.3721984394854L250.13736979166666,330.3716656990042L250.86947916666668,330.3702199851079L251.60158854166664,330.36904919917043L251.84562499999998,330.36895405085573L252.33369791666667,330.3687061472703L252.82177083333332,330.3692210291447L253.30984375,330.37056101018004L254.53002604166667,330.3709602277363L255.01809895833333,330.36928802707047L255.26213541666667,330.3684191934653L255.506171875,330.3681770775998L255.75020833333332,330.3681139982082L256.4823177083333,330.37046252885926L257.94653645833336,330.36988418474795L258.434609375,330.36927564089933L258.67864583333335,330.3694455116065L258.92268229166666,330.36953401642944L259.16671875000003,330.3702281374606L259.41075520833334,330.37052421199155L260.38690104166665,330.37208971142303L260.8749739583333,330.3726316176709L261.1190104166667,330.3731895583803L261.8511197916667,330.37331625765097L262.09515625,330.3731973954486L262.33919270833337,330.3727062499821L262.5832291666666,330.37263341929577L262.827265625,330.372119528315L263.3153385416667,330.37121220749805L263.559375,330.37108010335265L263.80341145833336,330.3704769643787L264.04744791666667,330.3701545410836L264.53552083333335,330.3684615541706L265.26763020833334,330.35184622622654L265.75570312499997,330.36699581971766L265.99973958333334,330.3705175684998L266.4878125,330.37273595427257L266.73184895833333,330.37289409189765L267.4639583333333,330.3739590774132L267.7079947916667,330.37366626832727L268.1960677083334,330.3733072720468L268.44010416666663,330.3733519523442L270.148359375,330.36996663160716L270.39239583333335,330.37006493276544L270.63643229166667,330.36987432085164L270.88046875000003,330.37028880717884L271.12450520833335,330.37049934956804L271.36854166666666,330.3709849325176L271.61257812499997,330.37138935226574L272.10065104166665,330.3719746101126L272.3446875,330.3725608813735L272.58872395833333,330.3725298934253L273.3208333333333,330.3720648039589L273.5648697916667,330.3709635607423L273.80890625,330.370476401371L274.0529427083333,330.3694898315789L274.541015625,330.3694541368857L276.005234375,330.3700579965096L276.24927083333336,330.3703463465739L276.49330729166667,330.37002685091926L276.98138020833335,330.37051331216094L277.95752604166665,330.372315432502L278.68963541666665,330.37338109362685L279.4217447916667,330.3731753255436L280.397890625,330.3706920558708L281.13,330.3702965091253L281.3740364583333,330.37002198653204L281.6180729166667,330.37030499928255L282.10614583333336,330.37007846747247L282.35018229166667,330.3696688004918L282.59421875,330.37028437067755L283.32632812500003,330.3713398976624L283.57036458333334,330.3718299846742L284.05843749999997,330.372562367714L284.54651041666665,330.3731130343629L284.790546875,330.37323583761975L285.27861979166664,330.37325054338294L285.7666927083333,330.3727886067601L286.0107291666667,330.37272579761225L286.4988020833334,330.37206640290094L286.986875,330.37154976444225L287.2309114583333,330.37099972836205L287.4749479166667,330.3708681647042L287.718984375,330.3701358041847L288.45109375,330.37022014275004L288.69513020833335,330.37040161141755L288.93916666666667,330.37100254340095L289.67127604166666,330.37167101379765L289.91531249999997,330.3723662833646L291.8676041666667,330.3732119660899L292.5997135416667,330.37231667111905L292.84375,330.37223375133334L293.3318229166667,330.3714223895622L293.81989583333336,330.3708549227612L294.0639322916667,330.37018561911304L294.79604166666667,330.37123398463893L295.04007812500004,330.3712508748723L295.5281510416667,330.3718240167918L295.77218750000003,330.3724144092696L296.0162239583333,330.372443820796L296.26026041666665,330.3728533526547L296.99236979166665,330.37327853612976L298.9446614583333,330.37217272129004L299.1886979166667,330.3720054629389L299.432734375,330.3713648726875L299.9208072916667,330.37088931127636L300.40888020833336,330.3709888285315L300.65291666666667,330.37138171788024L300.89695312500004,330.37117207630354L301.38502604166666,330.3716134969229L301.8730989583333,330.3722014572071L302.1171354166667,330.37287136890365L302.36117187499997,330.3731005806308L303.09328124999996,330.3737476567319L303.33731770833333,330.37337138737274L303.58135416666664,330.37362248884233L304.8015364583333,330.3725794381099L305.289609375,330.371885114396L305.5336458333333,330.3720830228906L306.02171875,330.3719313260745L306.26575520833336,330.3715490437923L306.75382812500004,330.37181953524987L308.21804687499997,330.3730083824769L308.4620833333333,330.3733980739415L308.95015624999996,330.3734223283166L309.43822916666664,330.37342719270384L310.414375,330.37340383914113L310.9024479166667,330.37318266716505L311.3905208333333,330.3729064780688L311.87859375,330.3722445160421L312.3666666666667,330.37222307670584L312.85473958333336,330.37218868819065L313.09877604166667,330.37239296993334L313.34281250000004,330.3728892950714L313.58684895833335,330.37257272705716L313.8308854166667,330.373026196043L314.80703124999997,330.3739177976828L315.29510416666665,330.3739093300458L315.53914062499996,330.37331195627155L317.003359375,330.37282119365034L317.4914322916667,330.3722996908044L317.97950520833336,330.37184635694047L318.2235416666667,330.3721174789667L318.467578125,330.3722374671847L319.93179687500003,330.3738131683171L320.66390624999997,330.3743507056246L321.15197916666665,330.37397707114184L321.88408854166664,330.37331479383073L322.61619791666664,330.37324167038037L322.860234375,330.37282560763134L323.3483072916667,330.37233209753225L323.59234375,330.3726708255326L323.8363802083333,330.3721555382926L324.0804166666667,330.3726078362223L324.56848958333336,330.3728404935571L324.8125260416667,330.37292717423475L325.30059895833335,330.3732620963026L325.54463541666667,330.3738480747994L325.78867187500003,330.37376233997475L326.52078124999997,330.3743785632495L326.7648177083333,330.3743655239893L327.25289062499996,330.3743005754119L329.2051822916667,330.3724880056465L329.44921875,330.37259713907446L329.6932552083333,330.3724396770587L329.9372916666667,330.3727740811594L330.6694010416667,330.3728442769693L330.9134375,330.3733167080572L331.15747395833336,330.37307220503874L331.88958333333335,330.37412261991295L332.1336197916667,330.37422619082406L332.37765625000003,330.3746741873743L333.10976562499997,330.37484502645486L336.038203125,330.37258119469413L336.7703125,330.37303952806724L337.25838541666667,330.3731682541659L337.50242187500004,330.3733215724444L337.99049479166666,330.37397970601825L338.23453125000003,330.3744896109039L338.96664062499997,330.375142407164L339.69874999999996,330.3754833646752L339.94278645833333,330.3749765901128L340.18682291666664,330.3748949539848L340.430859375,330.37427512746024L340.6748958333333,330.37429974216036L340.91893229166664,330.3736087064119L341.16296875,330.3737549533127L341.4070052083333,330.37310467932747L341.895078125,330.37261188987827L342.3831510416667,330.3726128357314L342.6271875,330.3730846137302L343.1152604166667,330.3733266395144L343.60333333333335,330.3740834345715L344.09140625000003,330.37479901745917L344.33544270833335,330.37495452020784L344.5794791666667,330.3754492464038L344.82351562499997,330.3753465087442L345.0675520833333,330.3756099513443L345.31158854166665,330.37529119885994L346.287734375,330.3747712949561L347.5079166666667,330.3738680277951L347.751953125,330.37345309106166L348.2400260416667,330.37280905520265L348.4840625,330.3729531401535L349.46020833333336,330.37364181126935L349.70424479166667,330.37397835479953L349.94828125000004,330.37473105116004L350.4363541666667,330.3753688038522L351.16846354166665,330.3756308501931L351.90057291666665,330.3759353022799L352.3886458333333,330.3756440020548L352.87671875,330.3749246807955L353.1207552083333,330.3741864199545L353.608828125,330.37333199934847L353.8528645833333,330.37339442565104L354.58497395833336,330.3728712112615L354.8290104166667,330.3733163702525L355.073046875,330.3732098942213L355.56111979166667,330.373716038215L355.80515625000004,330.37436437545347L356.04919270833335,330.37453645315117L356.53726562500003,330.3753068955168L356.7813020833333,330.3757561306842L357.0253385416667,330.37571255388207L357.26937499999997,330.37617320684717L357.51341145833334,330.3760751759326L357.75744791666665,330.3763691335544L358.9776302083333,330.3748285190668L359.22166666666664,330.37483279792593L359.7097395833333,330.37401943184716L360.6858854166667,330.37320120138116L360.929921875,330.3729700078666L361.4179947916667,330.37378049134554L362.39414062500003,330.3753132237243L362.8822135416667,330.3757797544906L363.3702864583333,330.37598685127216L363.85835937499996,330.3763653501421L364.10239583333333,330.3765962508926L364.34643229166664,330.3762359934747L364.59046875,330.37623741225434L365.07854166666664,330.3753439414287L365.8106510416667,330.37340287076773L366.0546875,330.373382332244L366.5427604166667,330.3732772074314L366.786796875,330.3732232487658L367.03083333333336,330.3736283666436L367.51890625,330.3744451332893L368.49505208333335,330.37595113405865L368.98312500000003,330.37624608257414L369.2271614583333,330.37601698344855L369.71523437499997,330.376283781575L369.95927083333333,330.3764656330878L370.6913802083333,330.37576049962456L370.93541666666664,330.37580018041285L372.1555989583333,330.37398396235704L372.3996354166667,330.3741751823193L372.643671875,330.3737648397293L372.88770833333336,330.3741581119234L373.37578125,330.37448852992895L373.86385416666667,330.3749407602977L374.10789062500004,330.3747952115266L374.35192708333335,330.3754124707356L374.59596354166666,330.3752631160319L374.84000000000003,330.37576959783024L375.0840364583333,330.37546494306065L375.81614583333334,330.3763842672035L376.54825520833333,330.3764487428544L377.036328125,330.376118482491L377.52440104166664,330.37579376212415L377.7684375,330.3756594509883L378.0124739583333,330.3748941432536L378.2565104166667,330.3748710374143L378.500546875,330.3743614252927L379.47669270833336,330.37380873181576L380.45283854166667,330.37479615737965L380.94091145833335,330.3755593707254L381.1849479166667,330.3762111986121L381.91705729166665,330.37661507787277L382.16109374999996,330.37701805632094L382.40513020833333,330.37689086160344L383.1372395833333,330.3766375081027L383.8693489583333,330.3754150380511L384.1133854166667,330.3754281899128L384.357421875,330.374842864505L384.8454947916667,330.3739573433492L385.08953125,330.37387192380896L385.33356770833336,330.3735288944291L386.06567708333336,330.3748760594437L386.55375000000004,330.37581984064445L386.79778645833335,330.3757248274516L387.0418229166667,330.3763222012259L387.28585937500003,330.37636762469356L387.5298958333333,330.37678132280985L387.77393229166665,330.37649653095474L388.26200520833333,330.3768488612231L388.50604166666665,330.3770524448361L389.23815104166664,330.3763092745673L390.4583333333333,330.37516292316747L393.3867708333333,330.3766169470586L393.6308072916667,330.3763857985847L393.87484374999997,330.37681053165346L394.11888020833334,330.37681697246245L395.09502604166664,330.3763440008871L395.82713541666664,330.37600045354014L396.071171875,330.37557310811525L396.5592447916667,330.3750365166608L396.80328125,330.3752659535911L397.0473177083333,330.37481464655514L397.2913541666667,330.37508227793313L397.77942708333336,330.37541253829653L398.26750000000004,330.375948769426L398.51153645833335,330.37583873518554L398.75557291666667,330.37637548428216L399.24364583333335,330.37698835203054L399.4876822916667,330.376633476967L399.73171874999997,330.3767058347268L400.21979166666665,330.37691119744443L400.70786458333333,330.3767359894235L402.1720833333333,330.37567629618104L402.66015625,330.37585134655984L403.8803385416667,330.3761038893294L404.124375,330.37656949676295L405.10052083333335,330.37689493777975L406.32070312499997,330.37576876457877L406.56473958333333,330.3759376894329L407.54088541666664,330.37582380421924L408.51703125,330.37618302570286L409.249140625,330.37658708512595L409.98125,330.3771746400446L410.22528645833336,330.37687140405455L410.46932291666667,330.37701945258027L411.20143229166666,330.37644622057957L411.44546875000003,330.37675323998184L412.17757812499997,330.3757144455882L412.66565104166665,330.3757042438872L412.90968749999996,330.37586134557796L413.15372395833333,330.3755954032233L414.8619791666667,330.3767787780147L415.106015625,330.3766282747751L415.3500520833333,330.37710266513005L415.5940885416667,330.3768171075843L416.08216145833336,330.3772921735486L416.3261979166667,330.37753906372L416.57023437500004,330.3773256162107L416.81427083333335,330.3774373169541L417.05830729166667,330.3771248701569L417.30234375000003,330.37718551735486L417.54638020833335,330.3767360344641L417.7904166666667,330.37686971503126L418.03445312499997,330.3763276061006L418.76656249999996,330.3760981241297L419.25463541666664,330.3756524471715L420.4748177083333,330.37581294942925L420.7188541666667,330.376411877105L420.962890625,330.3763707775371L421.4509635416667,330.37689408200794L423.15921875000004,330.37785459579993L423.6472916666667,330.37740385177176L424.86747395833333,330.3758398386808L425.11151041666665,330.3757718723817L426.08765625,330.37574455524424L426.5757291666667,330.3763163684653L426.819765625,330.3761890386259L427.3078385416667,330.3765806217967L427.551875,330.37710428659244L428.0399479166667,330.37761761456545L428.283984375,330.3775768302819L429.74820312500003,330.37799548286665L429.9922395833333,330.37805572469904L430.2362760416667,330.3775480268039L431.45645833333333,330.37584094217607L431.70049479166664,330.37517614259013L433.8968229166667,330.3774090314433L434.140859375,330.3776111061955L434.87296875000004,330.3787677493775L435.11700520833335,330.3785153642502L435.36104166666667,330.3785998154171L435.84911458333335,330.3783828547392L436.33718749999997,330.37763497772534L436.82526041666665,330.3768016811712L437.55736979166664,330.37536119198705L437.80140625,330.3756018665526L438.28947916666664,330.37579196049927L438.533515625,330.3755564881256L439.0215885416667,330.3761873270823L439.5096614583333,330.3766663791416L439.7536979166667,330.37728501208966L440.24177083333336,330.37791796795557L440.4858072916667,330.3780021713991L441.46195312500004,330.3783523397176L441.70598958333335,330.3784579824973L442.19406250000003,330.3784348090971L442.4380989583333,330.3779168644603L442.68213541666665,330.3778435833678L442.92617187499997,330.377077262219L443.41424479166665,330.37620083926896L443.65828124999996,330.3762570274454L443.9023177083333,330.375706473398L444.14635416666664,330.37585697663764L445.1225,330.37593163146914L445.6105729166667,330.3765763654578L445.854609375,330.3764974317672L446.09864583333336,330.3772742023403L446.58671875,330.3782470572628L447.07479166666667,330.37886413630935L447.56286458333335,330.37925218379127L448.05093750000003,330.37909476681614L448.2949739583333,330.37880569610184L448.5390104166667,330.3787338788295L449.02708333333334,330.377796268194L449.27111979166665,330.3771760137836L449.51515624999996,330.37685464894304L449.75919270833333,330.37601624027826L450.00322916666664,330.37595419682094L450.247265625,330.3753536476828L450.73533854166664,330.3749070699122L450.979375,330.3752759075686L451.711484375,330.3764574582148L451.9555208333333,330.3772575598303L452.44359375,330.3782011608686L452.68763020833336,330.3780800015945L453.41973958333335,330.37894352040627L453.66377604166667,330.37875516052355L453.90781250000003,330.37913397467787L454.15184895833335,330.37900594670884L454.3958854166667,330.37914178922586L454.8839583333333,330.37881835251676L455.86010416666664,330.3767753098868L456.3481770833333,330.37572072875497L456.59221354166664,330.37506493729353L456.83625,330.37539562554286L457.568359375,330.3757040412044L457.8123958333333,330.37653139239643L458.30046875,330.3775958374245L459.27661458333336,330.3790431277426L459.52065104166667,330.3791602333607L459.76468750000004,330.3794427281441L460.00872395833335,330.37924027054663L460.49679687500003,330.37920369756125L461.47294270833333,330.3778622076651L461.71697916666665,330.37753260039074L462.2050520833333,330.37646621861586L462.44908854166664,330.3757502078423L462.693125,330.3756051094774L462.9371614583333,330.37512285953386L463.425234375,330.3751350205019L464.15734375,330.37702127672543L464.40138020833336,330.3772625368191L464.6454166666667,330.37812335319353L464.889453125,330.3783300220892L465.13348958333336,330.3791345827263L465.86559895833335,330.3797993372716L466.10963541666666,330.37988520721814L467.08578124999997,330.3788995832792L467.32981770833334,330.37826453302426L467.81789062499996,330.3774001584407L468.06192708333333,330.37702958672025L468.30596354166664,330.3760969530735L469.282109375,330.37518285364285L470.01421875,330.37652310492194L470.5022916666667,330.3776343246363L471.2344010416667,330.37890012376664L471.47843750000004,330.3794765986921L471.72247395833335,330.37936789315006L471.96651041666667,330.3797712769639L472.21054687500003,330.379695946523L472.6986197916667,330.37970900830345L472.94265624999997,330.37979379727506L473.1866927083333,330.3790915238913L473.91880208333333,330.3778248689892L474.16283854166664,330.3767795887459L474.6509114583333,330.375844703068L474.89494791666664,330.37597394713384L475.138984375,330.3754437289275L475.87109375,330.37609026454106L476.3591666666667,330.3771696630558L476.603203125,330.3775194710493L476.84723958333336,330.37831747827585L477.0912760416667,330.37858164152595L478.79953125000003,330.37982510050756L479.0435677083333,330.3793691317672L479.77567708333333,330.3781777622653L480.995859375,330.37586729094016L481.9720052083333,330.3762564869579L482.460078125,330.37692921369336L482.9481510416667,330.37803097487705L483.43622395833336,330.3787670737682L483.68026041666667,330.37950724883564L483.92429687500004,330.37968799685314L484.16833333333335,330.3800597171094L485.1444791666667,330.37980998937877L485.38851562499997,330.3793471744638L485.63255208333334,330.37928211328483L486.12062499999996,330.3782965569068L486.36466145833333,330.3772369537456L486.60869791666664,330.3771397786029L487.58484375,330.37570631575585L488.0729166666667,330.3760283336853L488.5609895833333,330.3771273699114L489.0490625,330.3782657716414L489.29309895833336,330.37856808429865L489.78117187500004,330.37958120553753L490.75731770833335,330.3803493958721L491.24539062499997,330.3800496730506L491.4894270833333,330.3797468649466L492.22153645833333,330.37812524489965L492.9536458333333,330.3768657964971L493.9297916666667,330.37562330588884L494.4178645833333,330.37658408992456L494.6619010416667,330.37685825219285L495.3940104166667,330.37870347640944L496.37015625000004,330.380537192747L496.61419270833335,330.38062495439965L496.8582291666667,330.3807890148666L497.10226562500003,330.3804265954988L497.83437499999997,330.3796537885005L498.07841145833333,330.3789448716249L498.32244791666665,330.37874824678806L498.8105208333333,330.37747684010026L499.05455729166664,330.37637332233226L499.29859375,330.37639255467803L499.7866666666667,330.37608934120834L500.030703125,330.37577889871875L500.7628125,330.37696889448165L501.00684895833336,330.37723479179573L501.494921875,330.3781995619265L501.98299479166667,330.37949459242077L502.22703125000004,330.38015173510087L502.47106770833335,330.38038473024034L504.17932291666665,330.37989110753966L504.42335937499996,330.3789497134918L504.66739583333333,330.37869588706457L504.91143229166664,330.3777138888957L506.3756510416667,330.37548624727503L506.6196875,330.3760372967692L506.8637239583333,330.3760661678081L507.1077604166667,330.37686129243485L507.351796875,330.37736498171466L507.8398697916667,330.37896088356615L508.57197916666667,330.380995954006L509.3040885416667,330.3813534414256L510.28023437499996,330.3797421582015L510.52427083333333,330.3792935085623L510.76830729166664,330.3781280148979L511.01234375,330.37784441661927L511.2563802083333,330.37698821690867L511.744453125,330.3760976962438L511.9884895833333,330.37605891626794L512.9646354166666,330.376639197126L513.6967447916667,330.37820476411844L513.94078125,330.3791956803305L514.672890625,330.38061795058286L514.9169270833333,330.38110490727144L515.1609635416667,330.3809337078659L515.405,330.38115105138905L515.6490364583333,330.3807636344759L516.137109375,330.38015765794273L516.3811458333333,330.38003138655796L516.6251822916666,330.3794829268996L516.86921875,330.3792652005311L517.1132552083334,330.37826824887566L518.0894010416667,330.3764426623704L518.3334375000001,330.3763198365932L518.5774739583333,330.37593037033173L519.3095833333333,330.37659665625824L519.7976562499999,330.3777301485604L520.0416927083334,330.3784005557038L520.2857291666667,330.3794151182426L520.7738020833333,330.3806139419675L521.0178385416666,330.3808909868356L521.261875,330.3814796002088L521.7499479166667,330.38157218120807L521.993984375,330.3813419335466L522.72609375,330.38009138066695L523.2141666666666,330.37886253736724L523.7022395833334,330.3775299880346L523.9462760416667,330.37692594824824L524.4343489583333,330.37622225608493L525.1664583333333,330.376508782004L525.65453125,330.3773320119791L525.8985677083333,330.3775870545031L526.1426041666666,330.37848106581623L526.6306770833334,330.3797136925282L527.11875,330.3808066032296L527.3627864583333,330.3809219973041L527.6068229166667,330.38140821082237L528.58296875,330.3808632418122L528.8270052083334,330.3801270753602L529.315078125,330.3786379423039L529.8031510416666,330.37762779374606L531.0233333333333,330.376666694426L531.9994791666667,330.37768290094755L532.243515625,330.3778145321663L532.4875520833333,330.378594815908L532.7315885416666,330.3789670991721L535.6600260416667,330.3790245710062L536.1480989583333,330.37790211365655L536.6361718750001,330.37713027503156" style="fill: none;" fill="none"></path></g></g></g></g></g></g><g transform="translate(68, 377)" clip-path="url(#clip_1)"><clipPath id="clip_1"><rect width="585" height="22"></rect></clipPath><g><g><line x1="0" y1="0" x2="0" y2="5" style="visibility: inherit;" fill="rgb(0, 0, 0)" stroke="rgb(204, 204, 204)" stroke-width="1px"></line><line x1="48.807291666666664" y1="0" x2="48.807291666666664" y2="5" style="visibility: inherit;" fill="rgb(0, 0, 0)" stroke="rgb(204, 204, 204)" stroke-width="1px"></line><line x1="97.61458333333333" y1="0" x2="97.61458333333333" y2="5" style="visibility: inherit;" fill="rgb(0, 0, 0)" stroke="rgb(204, 204, 204)" stroke-width="1px"></line><line x1="146.421875" y1="0" x2="146.421875" y2="5" style="visibility: inherit;" fill="rgb(0, 0, 0)" stroke="rgb(204, 204, 204)" stroke-width="1px"></line><line x1="195.22916666666666" y1="0" x2="195.22916666666666" y2="5" style="visibility: inherit;" fill="rgb(0, 0, 0)" stroke="rgb(204, 204, 204)" stroke-width="1px"></line><line x1="244.03645833333334" y1="0" x2="244.03645833333334" y2="5" style="visibility: inherit;" fill="rgb(0, 0, 0)" stroke="rgb(204, 204, 204)" stroke-width="1px"></line><line x1="292.84375" y1="0" x2="292.84375" y2="5" style="visibility: inherit;" fill="rgb(0, 0, 0)" stroke="rgb(204, 204, 204)" stroke-width="1px"></line><line x1="341.6510416666667" y1="0" x2="341.6510416666667" y2="5" style="visibility: inherit;" fill="rgb(0, 0, 0)" stroke="rgb(204, 204, 204)" stroke-width="1px"></line><line x1="390.4583333333333" y1="0" x2="390.4583333333333" y2="5" style="visibility: inherit;" fill="rgb(0, 0, 0)" stroke="rgb(204, 204, 204)" stroke-width="1px"></line><line x1="439.265625" y1="0" x2="439.265625" y2="5" style="visibility: inherit;" fill="rgb(0, 0, 0)" stroke="rgb(204, 204, 204)" stroke-width="1px"></line><line x1="488.0729166666667" y1="0" x2="488.0729166666667" y2="5" style="visibility: inherit;" fill="rgb(0, 0, 0)" stroke="rgb(204, 204, 204)" stroke-width="1px"></line><line x1="536.8802083333333" y1="0" x2="536.8802083333333" y2="5" style="visibility: inherit;" fill="rgb(0, 0, 0)" stroke="rgb(204, 204, 204)" stroke-width="1px"></line><line x1="585.6875" y1="0" x2="585.6875" y2="5" style="visibility: inherit;" fill="rgb(0, 0, 0)" stroke="rgb(204, 204, 204)" stroke-width="1px"></line></g><g transform="translate(0, 8)"><text x="0" y="0" dx="0em" dy="0.95em" style="text-anchor: middle; visibility: hidden; font-family: &quot;Helvetica Neue&quot;, sans-serif; font-size: 12px; font-weight: 200;" fill="rgb(50, 49, 63)" stroke="none" stroke-width="1px">-200</text><text x="48.807291666666664" y="0" dx="0em" dy="0.95em" style="text-anchor: middle; visibility: inherit; font-family: &quot;Helvetica Neue&quot;, sans-serif; font-size: 12px; font-weight: 200;" fill="rgb(50, 49, 63)" stroke="none" stroke-width="1px">0</text><text x="97.61458333333333" y="0" dx="0em" dy="0.95em" style="text-anchor: middle; visibility: inherit; font-family: &quot;Helvetica Neue&quot;, sans-serif; font-size: 12px; font-weight: 200;" fill="rgb(50, 49, 63)" stroke="none" stroke-width="1px">200</text><text x="146.421875" y="0" dx="0em" dy="0.95em" style="text-anchor: middle; visibility: inherit; font-family: &quot;Helvetica Neue&quot;, sans-serif; font-size: 12px; font-weight: 200;" fill="rgb(50, 49, 63)" stroke="none" stroke-width="1px">400</text><text x="195.22916666666666" y="0" dx="0em" dy="0.95em" style="text-anchor: middle; visibility: inherit; font-family: &quot;Helvetica Neue&quot;, sans-serif; font-size: 12px; font-weight: 200;" fill="rgb(50, 49, 63)" stroke="none" stroke-width="1px">600</text><text x="244.03645833333334" y="0" dx="0em" dy="0.95em" style="text-anchor: middle; visibility: inherit; font-family: &quot;Helvetica Neue&quot;, sans-serif; font-size: 12px; font-weight: 200;" fill="rgb(50, 49, 63)" stroke="none" stroke-width="1px">800</text><text x="292.84375" y="0" dx="0em" dy="0.95em" style="text-anchor: middle; visibility: inherit; font-family: &quot;Helvetica Neue&quot;, sans-serif; font-size: 12px; font-weight: 200;" fill="rgb(50, 49, 63)" stroke="none" stroke-width="1px">1k</text><text x="341.6510416666667" y="0" dx="0em" dy="0.95em" style="text-anchor: middle; visibility: inherit; font-family: &quot;Helvetica Neue&quot;, sans-serif; font-size: 12px; font-weight: 200;" fill="rgb(50, 49, 63)" stroke="none" stroke-width="1px">1.2k</text><text x="390.4583333333333" y="0" dx="0em" dy="0.95em" style="text-anchor: middle; visibility: inherit; font-family: &quot;Helvetica Neue&quot;, sans-serif; font-size: 12px; font-weight: 200;" fill="rgb(50, 49, 63)" stroke="none" stroke-width="1px">1.4k</text><text x="439.265625" y="0" dx="0em" dy="0.95em" style="text-anchor: middle; visibility: inherit; font-family: &quot;Helvetica Neue&quot;, sans-serif; font-size: 12px; font-weight: 200;" fill="rgb(50, 49, 63)" stroke="none" stroke-width="1px">1.6k</text><text x="488.0729166666667" y="0" dx="0em" dy="0.95em" style="text-anchor: middle; visibility: inherit; font-family: &quot;Helvetica Neue&quot;, sans-serif; font-size: 12px; font-weight: 200;" fill="rgb(50, 49, 63)" stroke="none" stroke-width="1px">1.8k</text><text x="536.8802083333333" y="0" dx="0em" dy="0.95em" style="text-anchor: middle; visibility: inherit; font-family: &quot;Helvetica Neue&quot;, sans-serif; font-size: 12px; font-weight: 200;" fill="rgb(50, 49, 63)" stroke="none" stroke-width="1px">2k</text><text x="585.6875" y="0" dx="0em" dy="0.95em" style="text-anchor: middle; visibility: hidden; font-family: &quot;Helvetica Neue&quot;, sans-serif; font-size: 12px; font-weight: 200;" fill="rgb(50, 49, 63)" stroke="none" stroke-width="1px">2.2k</text></g><line x1="0" y1="0" x2="585.6875" y2="0" fill="rgb(0, 0, 0)" stroke="rgb(204, 204, 204)" stroke-width="1px"></line></g></g></g></g></svg>